<?xml version="1.0" encoding="utf-8"?>
<!-- Generator: Adobe Illustrator 19.2.1, SVG Export Plug-In . SVG Version: 6.00 Build 0)  -->
<svg version="1.1" id="Calque_1" xmlns="http://www.w3.org/2000/svg" xmlns:xlink="http://www.w3.org/1999/xlink" x="0px" y="0px"
	 viewBox="0 0 200 200" style="enable-background:new 0 0 200 200;" xml:space="preserve">
<style type="text/css">
	.st0{fill:none;stroke:#DE1E2C;stroke-width:10;stroke-linecap:round;stroke-linejoin:round;stroke-miterlimit:10;}
	.st1{fill:none;stroke:#2172E8;stroke-width:10;stroke-miterlimit:10;}
	.st2{fill:none;stroke:#2172E8;stroke-width:10;stroke-linecap:round;stroke-linejoin:round;stroke-miterlimit:10;}
</style>
<path class="st0" d="M27.1,39.4C15.3,54.8,8.2,74.2,8.2,95.2c0,50.7,41.1,91.8,91.8,91.8s91.8-41.1,91.8-91.8
	c0-35.9-20.6-67-50.6-82">
	<animateTransform attributeName="transform"
		attributeType="XML"
		type="rotate"
		from="0 100 95.3"
		to="360 100 95.3"
		dur="2s"
		repeatCount="indefinite" />
</path>
<circle class="st1" cx="100.5" cy="94.9" r="73">
	<animateTransform attributeName="transform"
		attributeType="XML"
		type="rotate"
		from="0 100.5 94.9"
		to="360 100.5 94.9"
		dur="5s"
		repeatCount="indefinite" />
</circle>
<path class="st1" d="M71.9,76.5">
	<animateTransform attributeName="transform2"
		attributeType="XML"
		type="rotate"
		from="0 100.5 94.9"
		to="360 100.5 94.9"
		dur="9s"
		repeatCount="indefinite" />
</path>
<path class="st2" d="M71.9,76.5c-3.7,5.4-5.8,11.9-5.8,19c0,18.7,15.2,33.9,33.9,33.9s33.9-15.2,33.9-33.9S118.7,61.6,100,61.6
	c-2.9,0-5.8,0.4-8.5,1.1">
	<animateTransform attributeName="transform"
		attributeType="XML"
		type="rotate"
		from="0 100 95.5"
		to="360 100 95.5"
		dur="1s"
		repeatCount="indefinite" />
</path>
<path class="st0" d="M84.6,43.7c-21.8,6.8-37.6,27.1-37.6,51.2c0,29.6,24,53.6,53.6,53.6s53.6-24,53.6-53.6c0-20.3-11.3-38-28-47.1"
	>
	<animateTransform attributeName="transform"
		attributeType="XML"
		type="rotate"
		from="0 100.5 94.9"
		to="-360 100.5 94.9"
		dur="2s"
		repeatCount="indefinite" />
</path>
</svg>
